<svg width="184" height="184" viewBox="0 0 184 184" fill="none" xmlns="http://www.w3.org/2000/svg">
<g transform="translate(28, 0)">
<path d="M56.698 71C56.698 69.3431 57.8518 68 59.2752 68H71.302C72.7254 68 73.8792 69.3431 73.8792 71V181C73.8792 182.657 72.7254 184 71.302 184H59.2752C57.8518 184 56.698 182.657 56.698 181V71Z" fill="white"/>
<path d="M17.1812 3C17.1812 1.34314 16.0274 0 14.604 0H2.57718C1.15384 0 0 1.34315 0 3V101C0 102.657 1.15384 104 2.57718 104H14.604C16.0274 104 17.1812 102.657 17.1812 101V3Z" fill="white"/>
<path d="M128 3C128 1.34314 126.846 0 125.423 0H113.396C111.973 0 110.819 1.34315 110.819 3V101C110.819 102.657 111.973 104 113.396 104H125.423C126.846 104 128 102.657 128 101V3Z" fill="white"/>
<path d="M27.4899 59C27.4899 57.3431 28.6438 56 30.0671 56H42.094C43.5173 56 44.6711 57.3431 44.6711 59V134C44.6711 135.657 43.5173 137 42.094 137H30.0671C28.6438 137 27.4899 135.657 27.4899 134V59Z" fill="white"/>
<path d="M102.228 59C102.228 57.3431 101.074 56 99.651 56H87.6242C86.2008 56 85.047 57.3431 85.047 59V134C85.047 135.657 86.2008 137 87.6242 137H99.651C101.074 137 102.228 135.657 102.228 134V59Z" fill="white"/>
</g>
</svg>
