<svg width="414" height="181" viewBox="0 0 414 181" fill="none" xmlns="http://www.w3.org/2000/svg">
<path d="M35.525 180.075C33.075 180.075 31.85 179.177 31.85 177.38C31.85 175.583 32.9117 174.603 35.035 174.44L46.06 172.725C49.3267 172.235 51.5317 171.418 52.675 170.275C53.8183 168.968 54.39 166.6 54.39 163.17V105.35C54.39 101.757 53.5733 98.245 51.94 94.815L15.925 19.355C14.7817 16.5783 13.475 14.455 12.005 12.985C10.535 11.515 8.41166 10.4533 5.63499 9.79999L3.42999 9.31C1.14333 8.81999 0 7.75833 0 6.12499C0 4.49166 1.225 3.675 3.675 3.675H45.57C47.8567 3.675 49 4.57333 49 6.36999C49 8.16666 47.6117 9.14667 44.835 9.31L40.18 9.79999C37.4033 9.96333 35.4433 10.8617 34.3 12.495C33.1567 14.1283 33.4017 16.66 35.035 20.09L65.17 84.28C65.8233 85.4233 66.64 85.995 67.62 85.995C68.6 85.995 69.4167 85.4233 70.07 84.28L98.98 25.235C101.103 20.9883 101.593 17.5583 100.45 14.945C99.47 12.1683 97.1017 10.535 93.345 10.045L87.955 9.31C85.1783 8.81999 83.79 7.83999 83.79 6.36999C83.79 4.57333 84.9333 3.675 87.22 3.675H122.01C124.46 3.675 125.685 4.49166 125.685 6.12499C125.685 7.75833 124.542 8.81999 122.255 9.31L119.805 9.79999C117.518 10.29 115.477 11.6783 113.68 13.965C112.047 16.2517 109.842 20.09 107.065 25.48L74.97 89.915C73.8267 92.2017 73.01 94.4067 72.52 96.53C72.03 98.49 71.785 100.777 71.785 103.39V163.17C71.785 166.6 72.3567 168.968 73.5 170.275C74.8067 171.418 77.0117 172.235 80.115 172.725L91.14 174.44C93.2633 174.603 94.325 175.583 94.325 177.38C94.325 179.177 93.1 180.075 90.65 180.075H35.525Z" fill="white"/>
<path d="M111.324 180.075C108.874 180.075 107.649 179.177 107.649 177.38C107.649 175.91 108.71 174.93 110.834 174.44L116.469 173.46C119.899 172.807 122.104 171.908 123.084 170.765C124.227 169.622 124.799 167.335 124.799 163.905V19.845C124.799 16.415 124.227 14.1283 123.084 12.985C122.104 11.8417 119.899 10.9433 116.469 10.29L110.834 9.31C108.71 8.81999 107.649 7.83999 107.649 6.36999C107.649 4.57333 108.874 3.675 111.324 3.675H193.644C197.4 3.675 199.442 5.55333 199.769 9.31L201.729 49.98C202.055 52.7567 200.994 54.145 198.544 54.145C196.584 54.145 195.44 53.0833 195.114 50.96L193.644 41.895C191.847 30.7883 188.172 22.7033 182.619 17.64C177.065 12.4133 169.389 9.79999 159.589 9.79999C153.055 9.79999 148.482 10.78 145.869 12.74C143.419 14.5367 142.194 17.8033 142.194 22.54V81.585C142.194 83.8717 143.337 85.015 145.624 85.015H157.874C165.06 85.015 169.47 81.1767 171.104 73.5L173.554 61.25C174.207 58.8 175.595 57.7383 177.719 58.065C179.515 58.3917 180.414 59.78 180.414 62.23V117.355C180.414 119.805 179.515 121.193 177.719 121.52C175.595 121.847 174.207 120.785 173.554 118.335L171.104 106.33C169.96 100.613 168.327 96.8567 166.204 95.06C164.244 93.2633 161.385 92.365 157.629 92.365H145.624C143.337 92.365 142.194 93.5083 142.194 95.795V157.29C142.194 163.17 143.664 167.417 146.604 170.03C149.707 172.643 155.26 173.95 163.264 173.95C171.43 173.95 178.372 171.908 184.089 167.825C189.969 163.578 194.052 155.738 196.339 144.305L199.279 129.85C199.769 127.727 200.994 126.665 202.954 126.665C205.24 126.665 206.22 128.053 205.894 130.83L203.444 174.44C203.117 178.197 201.075 180.075 197.319 180.075H111.324Z" fill="white"/>
<path d="M233.119 180.075C230.669 180.075 229.444 179.177 229.444 177.38C229.444 175.583 230.506 174.603 232.629 174.44L243.654 172.725C246.921 172.235 249.126 171.418 250.269 170.275C251.413 168.968 251.984 166.6 251.984 163.17V16.17C251.984 13.8833 251.494 12.25 250.514 11.27C249.534 10.29 247.493 9.79999 244.389 9.79999C238.346 9.79999 232.384 12.4133 226.504 17.64C220.624 22.8667 216.786 31.2783 214.989 42.875L213.764 50.96C213.438 53.0833 212.294 54.145 210.334 54.145C207.884 54.145 206.823 52.7567 207.149 49.98L209.354 5.635C209.681 1.87833 211.151 0 213.764 0C214.908 0 215.969 0.326667 216.949 0.980002C217.929 1.47 219.563 2.04166 221.849 2.69499C224.299 3.34833 228.138 3.675 233.364 3.675H287.999C293.226 3.675 296.983 3.34833 299.269 2.69499C301.719 2.04166 303.434 1.47 304.414 0.980002C305.558 0.326667 306.619 0 307.599 0C310.213 0 311.683 1.87833 312.009 5.635L314.214 49.98C314.541 52.7567 313.479 54.145 311.029 54.145C309.069 54.145 307.926 53.0833 307.599 50.96L306.374 42.875C304.741 31.2783 300.984 22.8667 295.104 17.64C289.224 12.4133 283.181 9.79999 276.974 9.79999C273.871 9.79999 271.829 10.29 270.849 11.27C269.869 12.25 269.379 13.8833 269.379 16.17V163.17C269.379 166.6 269.951 168.968 271.094 170.275C272.401 171.418 274.606 172.235 277.709 172.725L288.734 174.44C290.858 174.603 291.919 175.583 291.919 177.38C291.919 179.177 290.694 180.075 288.244 180.075H233.119Z" fill="white"/>
<path d="M296.316 180.075C293.866 180.075 292.641 179.258 292.641 177.625C292.641 175.992 293.784 174.93 296.071 174.44L299.746 173.705C303.013 173.052 305.463 171.5 307.096 169.05C308.729 166.437 310.118 162.843 311.261 158.27L349.236 5.14499C349.563 3.51166 350.053 2.44999 350.706 1.95999C351.523 1.47 352.258 1.225 352.911 1.225C353.728 1.225 354.463 1.47 355.116 1.95999C355.933 2.44999 356.504 3.51166 356.831 5.14499L395.541 160.475C396.684 165.048 397.991 168.233 399.461 170.03C400.931 171.827 403.218 173.052 406.321 173.705L409.996 174.44C412.283 174.93 413.426 175.992 413.426 177.625C413.426 179.258 412.201 180.075 409.751 180.075H367.856C365.569 180.075 364.426 179.177 364.426 177.38C364.426 175.583 365.814 174.603 368.591 174.44L373.246 173.95C376.023 173.623 377.738 172.725 378.391 171.255C379.208 169.785 379.208 167.253 378.391 163.66L369.081 125.685C368.101 121.438 365.406 119.315 360.996 119.315H335.271C331.024 119.315 328.329 121.438 327.186 125.685L318.856 158.515C316.406 167.825 318.856 172.97 326.206 173.95L329.881 174.44C332.658 174.93 334.046 175.91 334.046 177.38C334.046 179.177 332.903 180.075 330.616 180.075H296.316ZM334.536 111.965H361.486C364.099 111.965 365.161 110.577 364.671 107.8L348.991 42.14H347.766L331.351 107.8C330.861 110.577 331.923 111.965 334.536 111.965Z" fill="white"/>
</svg>
